# xmcd
#
# Track frame offsets:
#	150
#	25875
#	45422
#	66645
#
# Disc length: 1020 seconds
#
# Revision: 1
# Processed by: cddbd v1.5PL3 Copyright (c) Steve Scherf et al.
# Submitted via: CDex 1.50Beta5
#
DISCID=3103fa04
DTITLE=Indian Rope - Stone Buddha
DYEAR=1999
DGENRE=Rock
TTITLE0=Stone Buddha
TTITLE1=Live Forever?
TTITLE2=Dead To The World
TTITLE3="Sayonara, Tokyo"
EXTD=
EXTT0=
EXTT1=
EXTT2=
EXTT3=
PLAYORDER=
